Coordinates
version=1
nRows=12
nColumns=38
inDegrees=yes

Units are S.I. units (second, meters, Newtons, ...)
Angles are in degrees.

endheader
time	pelvis_tilt	pelvis_list	pelvis_rotation	pelvis_tx	pelvis_ty	pelvis_tz	hip_flexion_r	hip_adduction_r	hip_rotation_r	knee_angle_r	ankle_angle_r	subtalar_angle_r	mtp_angle_r	hip_flexion_l	hip_adduction_l	hip_rotation_l	knee_angle_l	ankle_angle_l	subtalar_angle_l	mtp_angle_l	lumbar_extension	lumbar_bending	lumbar_rotation	arm_flex_r	arm_add_r	arm_rot_r	elbow_flex_r	pro_sup_r	wrist_flex_r	wrist_dev_r	arm_flex_l	arm_add_l	arm_rot_l	elbow_flex_l	pro_sup_l	wrist_flex_l	wrist_dev_l
      0.95000000	      0.65631289	     -1.14098957	      7.50760709	     -1.02612080	      0.92919393	     -0.17908634	      0.94491259	      5.46161180	     -5.96283474	    -17.28329483	      9.42067159	     -2.38823614	      2.37054199	     25.07042758	      2.39757465	      4.86081501	    -50.67910011	     -0.82315233	     -4.72156746	     12.78666903	     -8.73353891	      3.55954784	      1.22621921	     -5.35098045	    -21.53405623	     11.21908681	     34.49033408	     86.51662706	      0.00000000	      0.00000000	     -3.91141967	    -15.13256940	     16.02634309	     23.35056767	     86.51662706	      0.00000000	      0.00000000
      0.96000000	      0.28998253	     -1.35374928	      7.70286088	     -1.01489526	      0.92780181	     -0.17944255	      0.12445432	      5.78886154	     -6.07472113	    -16.37883957	      9.73563265	     -2.02565856	      2.45263148	     26.19184064	      2.25908927	      4.88594547	    -48.11433547	     -0.35436906	     -4.72098100	     12.55553112	     -8.30372633	      3.71857245	      1.43793601	     -5.11681919	    -21.67856307	     11.26560280	     34.57433233	     86.51662706	      0.00000000	      0.00000000	     -4.15012961	    -15.13116660	     16.06781790	     23.29544834	     86.51662706	      0.00000000	      0.00000000
      0.97000000	      0.23539024	     -1.41724266	      7.84491267	     -1.00363975	      0.92674264	     -0.17991382	     -1.02352164	      5.98307264	     -6.14429728	    -15.55956428	     10.07029429	     -1.75685590	      2.53641197	     26.77744709	      2.25518045	      4.91621246	    -45.22232322	     -0.21069033	     -5.43152685	     12.03511871	     -8.27594706	      3.77563476	      1.69866611	     -4.85577857	    -21.85321030	     11.21967037	     34.79210086	     86.51662706	      0.00000000	      0.00000000	     -4.29077794	    -15.09951541	     15.97002494	     23.17655972	     86.51662706	      0.00000000	      0.00000000
      0.98000000	      0.40431033	     -1.37921864	      7.94195125	     -0.99233955	      0.92586863	     -0.18046745	     -2.39997500	      6.08518051	     -6.18771973	    -14.81735136	     10.42177686	     -1.54811302	      2.62592508	     26.95482678	      2.34083030	      4.96601897	    -42.06658602	     -0.27665614	     -6.59689081	     11.30143003	     -8.53701677	      3.76177199	      1.99378244	     -4.57706375	    -22.04904461	     11.10804385	     35.10494179	     86.51662706	      0.00000000	      0.00000000	     -4.35869160	    -15.04195284	     15.77536094	     23.00644408	     86.51662706	      0.00000000	      0.00000000
      0.99000000	      0.69620354	     -1.29358474	      8.00373351	     -0.98098439	      0.92500855	     -0.18107533	     -3.88750959	      6.14055073	     -6.22060659	    -14.14915787	     10.78655434	     -1.36308959	      2.72514121	     26.87216155	      2.46418315	      5.04752595	    -38.72629890	     -0.41890923	     -7.90329243	     10.44955958	     -8.95527450	      3.71280094	      2.30694604	     -4.29117877	    -22.25564091	     10.96208299	     35.46728999	     86.51662706	      0.00000000	      0.00000000	     -4.38298235	    -14.96360554	     15.53401076	     22.79885217	     86.51662706	      0.00000000	      0.00000000
      1.00000000	      1.02075340	     -1.20649702	      8.04000990	     -0.96956091	      0.92402760	     -0.18172404	     -5.37572842	      6.18722548	     -6.25235526	    -13.56135005	     11.16069830	     -1.17210496	      2.83656896	     26.66529287	      2.57849398	      5.16273870	    -35.28454373	     -0.51841550	     -9.04414790	      9.57492364	     -9.41078735	      3.66145526	      2.62400761	     -4.00725204	    -22.46362780	     10.81057794	     35.83685513	     86.51662706	      0.00000000	      0.00000000	     -4.38990016	    -14.86940344	     15.29322232	     22.56533526	     86.51662706	      0.00000000	      0.00000000
      1.01000000	      1.30941318	     -1.14927337	      8.05937106	     -0.95805260	      0.92284952	     -0.18241310	     -6.77667961	      6.24991879	     -6.28440120	    -13.06915138	     11.53952588	     -0.95609889	      2.96070220	     26.43985683	      2.64894076	      5.29827259	    -31.82285969	     -0.48969001	     -9.76487218	      8.75984643	     -9.81291586	      3.63289462	      2.93472652	     -3.73161184	    -22.66614481	     10.67529279	     36.18079032	     86.51662706	      0.00000000	      0.00000000	     -4.39899394	    -14.76349580	     15.09091757	     22.31373656	     86.51662706	      0.00000000	      0.00000000
      1.02000000	      1.51988810	     -1.13808334	      8.06765522	     -0.94645088	      0.92143418	     -0.18314465	     -8.03181419	      6.33906541	     -6.31209151	    -12.69224197	     11.91694060	     -0.70658072	      3.09631273	     26.26621125	      2.65603140	      5.42412985	    -28.41969083	     -0.28834340	     -9.88988308	      8.06545739	    -10.10683406	      3.64261735	      3.23269881	     -3.46763355	    -22.85922245	     10.56891195	     36.47838183	     86.51662706	      0.00000000	      0.00000000	     -4.42148743	    -14.64891393	     14.95290237	     22.04820353	     86.51662706	      0.00000000	      0.00000000
      1.03000000	      1.63562154	     -1.17759417	      8.06657077	     -0.93475970	      0.91976486	     -0.18391903	     -9.11237309	      6.45361563	     -6.32854191	    -12.44907092	     12.28478211	     -0.42310815	      3.24150774	     26.18280871	      2.59644346	      5.49744735	    -25.15104198	      0.09051140	     -9.33451743	      7.52835480	    -10.27181874	      3.69637587	      3.51434467	     -3.21658243	    -23.04125247	     10.49497027	     36.72097776	     86.51662706	      0.00000000	      0.00000000	     -4.46052696	    -14.52747786	     14.89281895	     21.77017925	     86.51662706	      0.00000000	      0.00000000
      1.04000000	      1.66098456	     -1.26492224	      8.05401513	     -0.92299648	      0.91786759	     -0.18473951	    -10.01556311	      6.58542601	     -6.32845550	    -12.35238682	     12.63243834	     -0.10971451	      3.39538829	     26.20294661	      2.48102131	      5.47120627	    -22.09226537	      0.61987140	     -8.10488357	      7.16114281	    -10.31447305	      3.79166379	      3.77798459	     -2.97904155	    -23.21184908	     10.44926452	     36.91002336	     86.51662706	      0.00000000	      0.00000000	     -4.51300279	    -14.39989849	     14.91393059	     21.47977213	     86.51662706	      0.00000000	      0.00000000
      1.05000000	      1.61403654	     -1.39185133	      8.02617171	     -0.91118581	      0.91581603	     -0.18561560	    -10.75851121	      6.72322019	     -6.31052210	    -12.40715024	     12.94694427	      0.22857296	      3.56009953	     26.32157426	      2.33030805	      5.30643700	    -19.31961304	      1.25141929	     -6.28859105	      6.95578697	    -10.25954963	      3.91988103	      4.02355405	     -2.75651914	    -23.37049821	     10.42218355	     37.05404582	     86.51662706	      0.00000000	      0.00000000	     -4.57244922	    -14.26613202	     15.01189740	     21.17699196	     86.51662706	      0.00000000	      0.00000000
      1.06000000	      1.51944939	     -1.54562525	      7.97972613	     -0.89933456	      0.91369907	     -0.18656096	    -11.37133291	      6.85489797	     -6.27802117	    -12.61067557	     13.21374533	      0.58828047	      3.74301417	     26.52117649	      2.16905347	      4.98499249	    -16.90980929	      1.92630572	     -4.03888797	      6.88868811	    -10.14032800	      4.06824547	      4.25281249	     -2.55277461	    -23.51542969	     10.40138311	     37.16527727	     86.51662706	      0.00000000	      0.00000000	     -4.63232748	    -14.12620963	     15.17786387	     20.86252847	     86.51662706	      0.00000000	      0.00000000
